<svg xmlns="http://www.w3.org/2000/svg" xmlns:xlink="http://www.w3.org/1999/xlink" id="Layer_1" data-name="Layer 1" viewBox="0 0 497.63 399.95"><defs><style>.cls-1{fill:url(#linear-gradient);}.cls-2{fill:#fff;}.cls-3{fill:#eaeaea;}.cls-4{fill:url(#linear-gradient-2);}.cls-5{fill:url(#linear-gradient-3);}.cls-6{fill:url(#linear-gradient-4);}.cls-7{fill:url(#linear-gradient-5);}.cls-8{fill:url(#linear-gradient-6);}.cls-9{fill:url(#linear-gradient-7);}.cls-10{fill:url(#linear-gradient-8);}.cls-11{fill:url(#linear-gradient-9);}.cls-12{fill:url(#linear-gradient-10);}.cls-13{fill:url(#linear-gradient-11);}.cls-14{fill:url(#linear-gradient-12);}</style><linearGradient id="linear-gradient" x1="165.63" y1="245.53" x2="379.91" y2="6.58" gradientUnits="userSpaceOnUse"><stop offset="0" stop-color="#fce5a4"></stop><stop offset="1" stop-color="#d67800"></stop></linearGradient><linearGradient id="linear-gradient-2" x1="278.49" y1="574.45" x2="292.37" y2="440.92" gradientTransform="translate(181.17 -465.23) rotate(12.8)" xlink:href="#linear-gradient"></linearGradient><linearGradient id="linear-gradient-3" x1="295.08" y1="635.17" x2="323.28" y2="573.47" gradientTransform="translate(181.17 -465.23) rotate(12.8)" xlink:href="#linear-gradient"></linearGradient><linearGradient id="linear-gradient-4" x1="192.91" y1="633.48" x2="305.29" y2="515.81" gradientTransform="translate(181.17 -465.23) rotate(12.8)" xlink:href="#linear-gradient"></linearGradient><linearGradient id="linear-gradient-5" x1="157.81" y1="646.47" x2="269.53" y2="580.36" gradientTransform="translate(181.17 -465.23) rotate(12.8)" xlink:href="#linear-gradient"></linearGradient><linearGradient id="linear-gradient-6" x1="227.02" y1="689.24" x2="161.57" y2="691.56" gradientTransform="translate(181.17 -465.23) rotate(12.8)" gradientUnits="userSpaceOnUse"><stop offset="0" stop-color="#d67800"></stop><stop offset="1" stop-color="#fce5a4"></stop></linearGradient><linearGradient id="linear-gradient-7" x1="115.32" y1="614.48" x2="258.77" y2="564.9" gradientTransform="translate(181.17 -465.23) rotate(12.8)" xlink:href="#linear-gradient"></linearGradient><linearGradient id="linear-gradient-8" x1="140.8" y1="599.55" x2="212.2" y2="547.54" gradientTransform="translate(181.17 -465.23) rotate(12.8)" xlink:href="#linear-gradient"></linearGradient><linearGradient id="linear-gradient-9" x1="91.51" y1="629.28" x2="206.48" y2="562.86" gradientTransform="translate(181.17 -465.23) rotate(12.8)" gradientUnits="userSpaceOnUse"><stop offset="0" stop-color="#fce5a4"></stop><stop offset="0.24" stop-color="#f3cb7d"></stop><stop offset="1" stop-color="#d67800"></stop></linearGradient><linearGradient id="linear-gradient-10" x1="72.42" y1="638.89" x2="126.62" y2="591.62" gradientTransform="translate(181.17 -465.23) rotate(12.8)" xlink:href="#linear-gradient"></linearGradient><linearGradient id="linear-gradient-11" x1="138.16" y1="561.66" x2="165.92" y2="542.27" gradientTransform="translate(181.17 -465.23) rotate(12.8)" xlink:href="#linear-gradient"></linearGradient><linearGradient id="linear-gradient-12" x1="207.4" y1="552.32" x2="238.03" y2="518.17" gradientTransform="translate(181.17 -465.23) rotate(12.8)" xlink:href="#linear-gradient"></linearGradient></defs><path class="cls-1" d="M344.71,158h0c1.46-1.48,3-3,4.53-4.66,4.83-5,10-10.65,14.43-16.06,12.95-15.68,23.73-36,30.09-60.43s-4.52-46.19-14.14-61.65-30.35-16.81-39.17-14-10.22,22.25-9.64,34.23c0,.14,0,.29,0,.44.64,11.93-3.82,34.51-6.77,50.45-2.3,12.39-5.65,18.06-9.66,24.09l-.66,1c-1,1.43-1.95,2.89-3,4.48-5.61,8.78-7.75,8.16-10,5.64-6.29-6.52-5-15.87-.42-21.14,4-4.59-.06-7.63-4.46-9.8-.65-.32-1.31-.62-1.95-.9-22.25-8.27-29.12,15.49-33,27.75,11.18-2.41,15.87,2.62,18.38,7,.28.48.53.95.76,1.4-.51-.12-1-.23-1.54-.33-22.46-4.54-53.52,1-57.89,2.37s-8.84,3.49-9.54-2.84a8.62,8.62,0,0,1,2.25-6.63c2.33-2.83,6-5.07,9-7,5-3.28-.57-8.71-11.83-11.67s-18.58-1.94-25.12,2.06-.32,9.05,6.15,11.86a7.21,7.21,0,0,1,2.32,1.5c2.94,3-.18,7.21-2.36,9.88-1.32-.26-2.6-.47-3.83-.61h0c-17.53-2-27,7.38-28,10.52a7.94,7.94,0,0,0-2.14-.1h0c-3,.25-6.88,2-13.08,5.75-7.76,4.67-17.15,1.2-26.94-2.9S105,140.92,105,140.92c-5.15,16.79,2.82,29.45,18.4,35.81a49.38,49.38,0,0,0,29.47,2.41s3.2,1.91,8.1,4.92l3.36,2.08c9.89,6.13,24.11,15.18,34.1,22.5q2.49,1.81,4.58,3.47c15.44,12.22-12.64,24.33-20.63,25.87s-6.89,5,2.25,14.31l.29.3c9.19,9.2,24.94,17.85,38.63,17.12,13.84-.74,17.5-7.41,14.37-13.08-2.94-5.32-10-7.81-10.27-22.17,0-1,0-2,.05-3.07.67-14.22,6.71-13.79,25.37-14.38,3.8-.12,8.12-.28,13-.62a77.54,77.54,0,0,0,12.45-1.84h0l.79-.83c.08.19.15.39.23.59,19.4-4.88,28.44-16.19,34.51-20.92,7.33-5.71,13.14,3.52,11,15.9-1.54,8.92.88,11.43,4.94,11.37a20.4,20.4,0,0,0,5.3-1c17.25-7.47,26-18.76,28.87-24.4s9.5-28.26,4.34-33.86-12.09,8.38-22.25,13.57a13.67,13.67,0,0,1-3.05,1.18c-7.93,2-11.18-5.75-11.18-5.75S337.57,165.22,344.71,158Z"></path><path class="cls-2" d="M55.06,285a15.68,15.68,0,0,1,6.33,1.32,17.76,17.76,0,0,1,5.34,3.58,17.3,17.3,0,0,1,3.69,5.29,15.6,15.6,0,0,1,1.38,6.55v20.59a15.7,15.7,0,0,1-1.32,6.34A17.88,17.88,0,0,1,66.9,334a17.34,17.34,0,0,1-5.34,3.69,15.89,15.89,0,0,1-6.5,1.37H16.74v23H0V285Zm0,18.94a4.66,4.66,0,0,0-1.43-3.41,4.57,4.57,0,0,0-3.3-1.43H16.74v25.77H50.33a4.64,4.64,0,0,0,3.3-1.38,4.51,4.51,0,0,0,1.43-3.36Z"></path><path class="cls-2" d="M100.43,281v81.05H85V281Z"></path><path class="cls-2" d="M127.85,362.08a14,14,0,0,1-5.95-1.27,16.36,16.36,0,0,1-4.79-3.3,15.67,15.67,0,0,1-3.25-4.79,14.07,14.07,0,0,1-1.21-5.73V317.48a13.74,13.74,0,0,1,1.27-5.84,16.41,16.41,0,0,1,3.36-4.84,14.89,14.89,0,0,1,4.84-3.25,14.71,14.71,0,0,1,5.73-1.16h41.63v59.69H154.06v-9.69l-11.23,9.69Zm21.91-13.22a4.2,4.2,0,0,0,3-1.21,4.09,4.09,0,0,0,1.27-3.08v-29h-21.7a4.2,4.2,0,0,0-3,1.21,4.06,4.06,0,0,0-1.27,3.08v24.67a4.06,4.06,0,0,0,1.27,3.08,4.2,4.2,0,0,0,3,1.21Z"></path><path class="cls-2" d="M222.33,362.08H203.72a14.71,14.71,0,0,1-5.73-1.16,15.38,15.38,0,0,1-4.84-3.19,15,15,0,0,1-3.3-4.79,14.59,14.59,0,0,1-1.21-5.95V315.61H178.28V302.39h10.36v-13.1h15.41v13.1h18.39v13.22H204.05v29a4.14,4.14,0,0,0,4.3,4.29h14Z"></path><path class="cls-2" d="M252.62,356.79l-26.32-54.4h16.85l17.5,38.1,16.74-38.1H294l-38.1,81.49H239.29Z"></path><path class="cls-2" d="M299.53,317.48a14.7,14.7,0,0,1,1.15-5.73,14.52,14.52,0,0,1,3.25-4.79,17.34,17.34,0,0,1,4.79-3.3,13.75,13.75,0,0,1,5.89-1.27h28.31a14.62,14.62,0,0,1,5.72,1.16,14.93,14.93,0,0,1,4.85,3.25,16.79,16.79,0,0,1,3.36,4.84,13.88,13.88,0,0,1,1.26,5.84V347a14.07,14.07,0,0,1-1.21,5.73,15.67,15.67,0,0,1-3.25,4.79,16.08,16.08,0,0,1-4.84,3.3,14.12,14.12,0,0,1-5.89,1.27H326.18l-11.24-9.69v31.49H299.53Zm15.41,27.09a4.25,4.25,0,0,0,1.22,3,4.07,4.07,0,0,0,3.08,1.26H338.4a4.24,4.24,0,0,0,3-1.21,4.09,4.09,0,0,0,1.27-3.08V319.9a4.09,4.09,0,0,0-1.27-3.08,4.24,4.24,0,0,0-3-1.21H319.24a4.2,4.2,0,0,0-3,1.21,4.09,4.09,0,0,0-1.27,3.08Z"></path><path class="cls-2" d="M408.55,348.86a4.2,4.2,0,0,0,3-1.21,4.06,4.06,0,0,0,1.27-3.08V302.39h15.42v59.69H412.84V352.5l-10.79,9.58H385.42a14.62,14.62,0,0,1-5.72-1.16,14.83,14.83,0,0,1-4.85-3.25,15.66,15.66,0,0,1-3.3-4.79,14.18,14.18,0,0,1-1.22-5.89v-44.6h15.42v42.18a4.14,4.14,0,0,0,4.3,4.29Z"></path><path class="cls-2" d="M459.86,315.28a4.14,4.14,0,0,0-4.29,4.29v1.76a4.35,4.35,0,0,0,1.21,3.14,4.06,4.06,0,0,0,3.08,1.27h22.69a14.26,14.26,0,0,1,5.83,1.21,15.38,15.38,0,0,1,8,8,14.26,14.26,0,0,1,1.21,5.83V347a14.31,14.31,0,0,1-1.21,5.84,15.38,15.38,0,0,1-8,8,14.43,14.43,0,0,1-5.83,1.21h-27a14.67,14.67,0,0,1-5.73-1.16,14.93,14.93,0,0,1-4.85-3.25,16,16,0,0,1-3.3-4.79,14.17,14.17,0,0,1-1.21-5.89v-2.53h15.09v.44a4.14,4.14,0,0,0,4.29,4.29h18.39a4.22,4.22,0,0,0,3-1.21,4.09,4.09,0,0,0,1.27-3.08v-1.65a4.12,4.12,0,0,0-1.27-3.09,4.26,4.26,0,0,0-3-1.21H455.57a14.6,14.6,0,0,1-5.89-1.16,15.32,15.32,0,0,1-8-8,14.82,14.82,0,0,1-1.16-5.9v-6.38a15,15,0,0,1,1.16-5.84,14.37,14.37,0,0,1,3.25-4.79,16.43,16.43,0,0,1,4.79-3.25,14.3,14.3,0,0,1,5.89-1.21h25.66a14.62,14.62,0,0,1,5.72,1.16,14.93,14.93,0,0,1,4.85,3.25,15.87,15.87,0,0,1,3.3,4.84,14.31,14.31,0,0,1,1.21,5.84V320H481.23v-.44a4.16,4.16,0,0,0-4.3-4.29Z"></path><path class="cls-3" d="M330.86,378.33h-8.43v-2.25h19.24v2.25h-8.42V400h-2.39Z"></path><path class="cls-3" d="M362.65,400H345.52V376.08h16.82v2.25H347.91v8.56h13.78v2.22H347.91v8.59h14.74Z"></path><path class="cls-3" d="M387.44,400h-3.1l-7.92-8.8h-6.17V400h-2.39V376.08h10.71c5.32,0,7.88,3.54,7.92,7.57,0,3.72-2.15,7.09-7.2,7.33Zm-17.19-21.62V388.9h8.19c3.82,0,5.66-2.25,5.66-5.25s-1.84-5.32-5.53-5.32Z"></path><path class="cls-3" d="M412.92,379.59,404,392.69h-.68l-8.94-13.27V400H392V376.08h2.93l8.73,13.16,8.63-13.16h3V400h-2.39Z"></path><path class="cls-3" d="M421.92,400V376.08h2.38V400Z"></path><path class="cls-3" d="M447.88,395.45l-.14-7.91V376.08h2.39V400h-1.44l-15.45-19.2.07,7.06V400h-2.39V376.08h1.5Z"></path><path class="cls-3" d="M473,394.43H459.13L456.67,400h-2.52l10.71-23.87h2.38L478,400h-2.53Zm-12.9-2.19H472l-6-13.57Z"></path><path class="cls-3" d="M484.36,376.08V397.7h13.27V400H482V376.08Z"></path><path class="cls-4" d="M393.76,76.82c-6.36,24.42-17.14,44.75-30.09,60.43-4.46,5.41-9.6,11-14.43,16.06,9.54-20.93,16.35-60.21-18.43-117.9-.58-12,.94-31.44,9.64-34.23s29.55-1.46,39.17,14S400.11,52.39,393.76,76.82Z"></path><path class="cls-5" d="M364.16,195.26c-2.89,5.64-11.62,16.93-28.87,24.4a20.39,20.39,0,0,1-5.31,1c4.64-9,10.44-23.7,13.22-44.51a13.67,13.67,0,0,0,3.05-1.18c10.16-5.19,17.09-19.16,22.25-13.57S367.05,189.62,364.16,195.26Z"></path><path class="cls-6" d="M344.71,158C337.57,165.22,332,170.4,332,170.4s3.25,7.79,11.18,5.75c-2.78,20.81-8.58,35.51-13.22,44.51-4.05.06-6.47-2.45-4.93-11.37,2.15-12.38-3.66-21.61-11-15.9-6.07,4.73-15.11,16-34.51,20.92-.08-.2-.15-.4-.23-.59C294.06,198,314.8,166,314.4,110.39c4-6,7.36-11.7,9.66-24.09,2.95-15.94,7.41-38.52,6.77-50.45,0-.15,0-.3,0-.44,34.78,57.69,28,97,18.43,117.9-1.55,1.62-3.07,3.18-4.53,4.66Z"></path><path class="cls-7" d="M279.32,213.72l-.79.83h0a77.54,77.54,0,0,1-12.45,1.84c-4.9.34-9.22.5-13,.62-18.66.59-24.7.16-25.37,14.38-.05,1.08-.07,2.1,0,3.07a186.12,186.12,0,0,1-42.74,18.13l-.29-.3c-9.14-9.32-10.23-12.78-2.25-14.31s36.07-13.65,20.63-25.87q-2.08-1.65-4.58-3.47c14.24-.9,43.08-4.66,68.43-20,23.12-14,43.34-37.53,46.89-77.31l.66-1C314.8,166,294.06,198,279.32,213.72Z"></path><path class="cls-8" d="M223.54,269.71c-13.69.73-29.44-7.92-38.63-17.12a186.12,186.12,0,0,0,42.74-18.13c.22,14.36,7.32,16.85,10.26,22.17C241,262.3,237.38,269,223.54,269.71Z"></path><path class="cls-9" d="M266.85,188.68c-25.35,15.3-54.19,19.06-68.43,20-10-7.32-24.21-16.37-34.1-22.5,16-2.58,48.42-9.69,77.62-27.79,13.55-8.39,26.4-19.15,36.63-32.91.52.1,1,.21,1.54.33-.23-.45-.48-.92-.76-1.4A109.29,109.29,0,0,0,295.9,90.55c4.4,2.17,8.42,5.21,4.46,9.8-4.55,5.27-5.87,14.62.42,21.14,2.24,2.52,4.38,3.14,10-5.64,1-1.59,2-3,3-4.48C310.19,151.15,290,174.72,266.85,188.68Z"></path><path class="cls-10" d="M278.57,125.44c-10.23,13.76-23.08,24.52-36.63,32.91-18.18-17-38.23-27.62-54.19-34,1.23.14,2.51.35,3.83.61,2.18-2.67,5.3-6.92,2.36-9.88a74.09,74.09,0,0,0,19.45,3.27,8.62,8.62,0,0,0-2.25,6.63c.7,6.33,5.07,4.23,9.54,2.84S256.11,120.9,278.57,125.44Z"></path><path class="cls-11" d="M241.94,158.35c-29.2,18.1-61.58,25.21-77.62,27.79L161,184.06c23.89-19.23,8.75-38.76-3.39-49.3a7.94,7.94,0,0,1,2.14.1c1.08-3.14,10.5-12.56,28-10.52h0C203.71,130.73,223.76,141.3,241.94,158.35Z"></path><path class="cls-12" d="M161,184.06c-4.9-3-8.1-4.92-8.1-4.92a49.38,49.38,0,0,1-29.47-2.41c-15.58-6.36-23.55-19-18.4-35.81,0,0,2.76-7.42,12.55-3.31s19.18,7.57,26.94,2.9c6.2-3.72,10.07-5.5,13.08-5.75h0C169.71,145.3,184.85,164.83,161,184.06Z"></path><path class="cls-13" d="M222.42,111.32c-3,2-6.7,4.19-9,7a74.09,74.09,0,0,1-19.45-3.27,7.21,7.21,0,0,0-2.32-1.5c-6.47-2.81-12.69-7.85-6.15-11.86s13.87-5,25.12-2.06S227.45,108,222.42,111.32Z"></path><path class="cls-14" d="M295.9,90.55a109.29,109.29,0,0,1-16.55,33.82c-2.51-4.35-7.2-9.38-18.38-7,3.86-12.26,10.73-36,33-27.75C294.59,89.93,295.25,90.23,295.9,90.55Z"></path></svg>