<svg width="107" height="84" viewBox="0 0 107 84" fill="none" xmlns="http://www.w3.org/2000/svg">
<path d="M42.5823 84C19.4292 84.0215 0.593078 65.2283 0.550122 42.0322C0.507166 18.8791 19.4077 -0.0214596 42.5823 1.82869e-05C65.7569 0.0214962 84.5501 18.8361 84.5501 42.0107C84.5501 65.1639 65.7355 83.9785 42.5823 84ZM4.37318 43.9223C4.95309 53.2651 8.38955 61.2979 14.7255 68.1708C15.0262 67.9345 15.2625 67.7197 15.5202 67.5479C17.8613 65.9371 20.2024 64.2833 22.5864 62.7369C23.2093 62.3288 23.3596 62.0281 23.1663 61.3408C21.9206 56.8734 21.2118 52.3201 20.8897 47.6809C20.8038 46.4352 20.7393 45.1895 20.6749 43.9223C15.198 43.9223 9.80708 43.9223 4.37318 43.9223ZM64.5542 43.9008C64.5112 44.0511 64.4897 44.0941 64.4897 44.1585C64.2535 50.0864 63.5447 55.9284 61.9339 61.6415C61.7835 62.1999 62.0627 62.3718 62.4494 62.6295C64.7904 64.1974 67.1315 65.7867 69.4511 67.3761C69.7948 67.6124 70.0955 67.8916 70.4606 68.1708C76.7751 61.2549 80.233 53.2222 80.7915 43.9008C75.3146 43.9008 69.9451 43.9008 64.5542 43.9008ZM70.4821 15.8936C70.1814 16.1299 69.9451 16.3447 69.7089 16.5165C67.3463 18.1488 64.9837 19.8241 62.5782 21.392C61.9983 21.7786 61.8265 22.0578 62.0198 22.7236C63.2226 27.0192 63.8884 31.4221 64.232 35.8681C64.3394 37.2641 64.4038 38.6602 64.4897 40.0563C69.9666 40.0563 75.3576 40.0563 80.7915 40.0563C80.1686 30.7349 76.7536 22.7236 70.4821 15.8936ZM4.37318 40.0777C9.82856 40.0777 15.198 40.0777 20.6964 40.0777C20.8467 33.8921 21.6843 27.7924 23.2952 22.0578C20.2883 19.9744 17.4317 18.02 14.5322 16.001C8.34659 22.788 4.93161 30.7778 4.37318 40.0777ZM60.7096 43.9223C55.2328 43.9223 49.8633 43.9223 44.4509 43.9223C44.4509 48.5185 44.4509 53.0289 44.4509 57.6896C49.219 57.9473 53.8152 58.9138 58.3041 60.6965C59.8505 55.1767 60.5378 49.6354 60.7096 43.9223ZM24.412 43.9223C24.5624 49.6354 25.2712 55.1767 26.8176 60.718C31.285 58.9138 35.9027 57.9473 40.6493 57.7111C40.6493 53.0504 40.6493 48.5185 40.6493 43.9437C35.2369 43.9223 29.8674 43.9223 24.412 43.9223ZM40.5849 40.0777C40.5849 35.4815 40.5849 30.9496 40.5849 26.3963C35.7738 26.1601 31.2205 25.1506 26.7531 23.3894C25.2282 28.9092 24.5409 34.4291 24.3906 40.0777C29.8245 40.0777 35.1939 40.0777 40.5849 40.0777ZM58.3256 23.4109C53.8152 25.1936 49.2405 26.203 44.4938 26.4393C44.4938 31.057 44.4938 35.5674 44.4938 40.0563C49.9277 40.0563 55.3187 40.0563 60.7096 40.0563C60.5163 34.4076 59.8505 28.9092 58.3256 23.4109ZM44.4724 22.6162C47.5222 22.788 55.4046 20.9839 57.1658 19.6952C56.9081 19.0509 56.6933 18.3636 56.4141 17.7193C54.6744 13.5955 52.5695 9.68654 49.0472 6.72259C47.7155 5.60574 46.255 4.72515 44.4724 4.40298C44.4724 10.5242 44.4724 16.5595 44.4724 22.6162ZM27.9129 19.7597C30.8339 21.2846 38.566 22.9599 40.6278 22.5518C40.6278 16.5165 40.6278 10.4812 40.6278 4.40298C38.8452 4.78958 37.3632 5.62722 36.053 6.74407C31.9937 10.202 29.7815 14.8412 27.9129 19.7597ZM44.4938 61.4912C44.4938 67.505 44.4938 73.5188 44.4938 79.7903C45.6322 79.2748 46.6846 78.8668 47.6511 78.3083C49.6915 77.0841 51.2594 75.3444 52.6125 73.4114C54.5884 70.6193 56.0275 67.5694 57.1658 64.3692C54.8247 62.9946 47.8014 61.4053 44.4938 61.4912ZM27.7841 64.3692C28.9439 66.7533 29.9748 69.1158 31.2205 71.328C32.7669 74.0772 34.6999 76.5686 37.4491 78.2654C38.4156 78.8668 39.4895 79.2534 40.6278 79.7903C40.6278 73.4973 40.6278 67.4835 40.6278 61.4697C36.2249 61.663 32.0582 62.5865 27.7841 64.3692ZM60.817 18.2992C63.1366 16.6883 65.4777 15.056 67.8403 13.4022C64.5327 10.0517 55.6838 5.30505 53.3642 5.39096C54.6958 7.34545 56.2208 9.29994 57.445 11.4477C58.6907 13.5955 59.6357 15.8936 60.817 18.2992ZM17.2814 13.4022C19.6869 15.0775 22.0065 16.6883 24.3261 18.2777C25.4859 15.8722 26.431 13.574 27.6767 11.4262C28.9224 9.27846 30.4473 7.3025 31.8004 5.34801C28.321 5.86348 20.589 10.0731 17.2814 13.4022ZM17.2814 70.7052C21.7488 74.5497 26.5169 77.1915 31.9508 78.652C28.5358 74.9363 26.3236 70.5548 24.4765 65.7223C22.028 67.4191 19.7299 69.0084 17.2814 70.7052ZM60.7956 65.7867C59.6357 68.1923 58.6692 70.4904 57.4235 72.6167C56.1993 74.743 54.6744 76.6975 53.2998 78.6949C58.6263 77.1485 63.4373 74.5282 67.8403 70.6622C65.3918 68.9869 63.0722 67.3761 60.7956 65.7867Z" fill="#A3A3A9"/>
<path d="M76 37.5C78.4 33.5 85 33.5 88 34L98 41.5V53.5H107V83.5H65V53.5H73.5C73.3333 49.8333 73.6 41.5 76 37.5Z" fill="#12122E"/>
<path d="M103.987 54.166H67.9648V81.0023H103.987V54.166Z" fill="#F0BA03"/>
<path d="M84.5381 62.1357H87.4052V73.5813H84.5381V62.1357Z" fill="#12122E"/>
<path d="M95.9713 54.1655H93.1041V46.6652C93.1425 45.7288 92.9957 44.794 92.6722 43.9145C92.3486 43.035 91.8547 42.2279 91.2186 41.5397C90.5826 40.8514 89.8169 40.2954 88.9656 39.9036C88.1143 39.5119 87.194 39.2919 86.2575 39.2565C85.3211 39.2181 84.3863 39.3649 83.5068 39.6885C82.6273 40.012 81.8202 40.506 81.132 41.142C80.4437 41.7781 79.8878 42.5437 79.496 43.3951C79.1042 44.2464 78.8843 45.1667 78.8488 46.1032C78.8374 46.2982 78.8374 46.4817 78.8488 46.6766V54.177H75.9817V46.6766C75.7982 41.1603 80.1218 36.527 85.6382 36.3435C91.1545 36.16 95.7878 40.4836 95.9713 46C95.9827 46.2293 95.9827 46.4472 95.9713 46.6766V54.1655Z" fill="#A3A3A9"/>
</svg>
