<svg xmlns:xlink="http://www.w3.org/1999/xlink" width="16" height="16" viewBox="0 0 16 16" fill="none" xmlns="http://www.w3.org/2000/svg"><path fill-rule="evenodd" clip-rule="evenodd" d="M9.88563 9.01795C10.4063 8.49725 10.6667 7.81479 10.6667 7.13233C10.6667 6.44987 10.4063 5.76741 9.88563 5.24671C9.36493 4.72601 8.68247 4.46566 8.00001 4.46566C7.31755 4.46566 6.63509 4.72601 6.11439 5.24671C5.07299 6.28811 5.07299 7.97655 6.11439 9.01795C7.15579 10.0593 8.84423 10.0593 9.88563 9.01795ZM7.0572 8.07514C6.5365 7.55444 6.5365 6.71022 7.0572 6.18952C7.31781 5.92891 7.65672 5.79899 8.00001 5.79899C8.3433 5.79899 8.68221 5.92891 8.94282 6.18952C9.20343 6.45013 9.33334 6.78903 9.33334 7.13233C9.33334 7.47562 9.20343 7.81453 8.94282 8.07514C8.42212 8.59584 7.5779 8.59584 7.0572 8.07514Z" fill="#707A8A"></path><path fill-rule="evenodd" clip-rule="evenodd" d="M8.00001 15.1323L12.1005 11.0318C13.2328 9.8995 13.799 8.61642 13.799 7.13233C13.799 5.64824 13.2328 4.16414 12.1005 3.03182C10.9682 1.8995 9.4841 1.33334 8.00001 1.33334C6.51592 1.33334 5.03183 1.8995 3.8995 3.03182C2.76718 4.16414 2.20102 5.64824 2.20102 7.13233C2.20102 8.61642 2.76718 9.8995 3.8995 11.0318L8.00001 15.1323ZM4.84231 10.089L8.00001 13.2467L11.1577 10.089C12.0668 9.17991 12.4657 8.22658 12.4657 7.13233C12.4657 5.9874 12.0299 4.84686 11.1577 3.97463C10.2855 3.1024 9.14493 2.66667 8.00001 2.66667C6.85508 2.66667 5.71455 3.1024 4.84231 3.97463C3.97008 4.84687 3.53435 5.9874 3.53435 7.13233C3.53435 8.22658 3.93321 9.17991 4.84231 10.089Z" fill="#707A8A"></path></svg>