<svg width="29" height="44" viewBox="0 0 29 44" fill="none" xmlns="http://www.w3.org/2000/svg">
<path d="M8.94214 2.19336H20.0962V5.774H9.3543L8.94214 2.19336Z" fill="#F0BA03"/>
<path d="M14.3009 42.7861C11.0724 42.7861 8.07926 42.7693 5.17021 42.7525C2.79924 42.7357 1.05045 40.9364 1.03363 38.4646C1 36.8671 1 35.236 1 33.6722C1 32.9996 1 32.327 1 31.6544V23.7343C1 17.664 1 11.6105 1 5.54014C1 3.57275 1.77351 2.24434 3.35415 1.48764C3.97632 1.18497 4.78345 1.01682 5.62422 1.01682C8.6678 1.01682 11.9132 1 15.5116 1C17.9499 1 20.5731 1 23.768 1.01682C26.6938 1.03363 28.3754 2.73198 28.3754 5.69148C28.3754 6.41454 28.3754 37.2138 28.3754 37.2138H27.0133C27.0133 37.0961 27.0133 36.9952 27.0133 36.8775C27.0133 36.6084 27.0133 36.3394 27.0133 36.0703C27.0133 35.465 27.0302 5.826 26.9965 5.20384C26.9293 3.5223 25.7858 2.44612 24.1043 2.44612C24.0707 2.44612 24.0538 2.44612 24.0202 2.44612C21.851 2.49657 21.582 2.71516 21.1616 4.85071C20.9262 6.06142 19.9509 6.86855 18.7402 6.88537C17.4454 6.88537 16.1002 6.90218 14.7213 6.90218C13.3761 6.90218 12.0309 6.90218 10.6856 6.88537C9.30678 6.88537 8.31467 5.96053 8.18015 4.54804C8.04563 3.05147 7.38983 2.44612 5.9269 2.44612C5.80919 2.44612 5.7083 2.44612 5.59059 2.44612C5.45607 2.44612 5.32154 2.44612 5.20384 2.44612H5.10294C3.69045 2.44612 2.54701 3.5223 2.41249 4.91797C2.39567 5.13657 2.39567 5.33836 2.39567 5.54014V5.62422C2.39567 16.4869 2.39567 27.3496 2.39567 38.2124V38.2796C2.39567 38.5991 2.39567 38.9522 2.47975 39.3054C2.78243 40.5497 3.85861 41.3905 5.17021 41.3905C9.94576 41.4073 14.1664 41.4073 18.1012 41.4073C20.1359 41.4073 22.1705 41.4073 24.2052 41.4073C25.8194 41.4073 26.9629 40.2806 27.0133 38.5991C27.0302 37.9097 27.0302 37.2371 27.0302 36.5644C27.0302 36.2618 27.0302 35.9759 27.0302 35.6732V35.6228H28.4258C28.4258 35.9086 28.409 36.1777 28.409 36.4467C28.3922 37.5734 28.3754 38.6327 28.1904 39.6585C27.8709 41.4409 26.2062 42.7525 24.2388 42.7525C20.6403 42.7693 17.3781 42.7861 14.3009 42.7861ZM9.45812 3.27007C9.47493 3.38778 9.49175 3.48867 9.52538 3.58956C9.55901 3.72409 9.57583 3.85861 9.57583 3.92587C9.55901 4.41351 9.67672 4.80027 9.92895 5.06931C10.2821 5.43925 10.7865 5.4897 11.2069 5.4897H11.291C12.0645 5.47288 12.9221 5.47288 13.9814 5.47288C14.5364 5.47288 15.0744 5.47288 15.6293 5.47288C16.1843 5.47288 16.7223 5.47288 17.2773 5.47288H18.1348C19.3624 5.47288 19.6987 5.18702 19.8332 4.06039C19.85 3.87542 19.8836 3.64001 19.9341 3.35415C19.9677 3.13555 19.9004 2.98421 19.8668 2.91695L19.6987 2.47975H19.2278H9.3236L9.45812 3.27007Z" fill="#CECED3" stroke="#CECED3"/>
</svg>
