<svg width="41" height="32" viewBox="0 0 41 32" fill="none" xmlns="http://www.w3.org/2000/svg">
<path d="M39.3378 2.24707L21.054 19.4227L20.4999 19.9768L1.66211 3.90923L2.77022 2.24707H39.3378Z" fill="#F0BA03"/>
<path d="M0 28.3853C0 20.1906 0 11.996 0 3.81214C0.0213987 3.76867 0.0534969 3.7252 0.0641962 3.67086C0.502871 1.69283 1.97938 0.475586 3.99087 0.475586C15.0005 0.475586 26.0102 0.475586 37.0198 0.475586C39.3416 0.475586 41 2.16017 41 4.52945C41 12.2459 41 19.9515 41 27.668C41 28.0266 40.9679 28.407 40.8823 28.7548C40.4436 30.5698 38.9243 31.7219 36.977 31.7219C26.9196 31.7219 16.8515 31.7219 6.7941 31.7219C5.78836 31.7219 4.79332 31.7327 3.78758 31.7219C2.13987 31.7001 0.706159 30.6133 0.192589 29.0374C0.128392 28.82 0.0641962 28.5918 0 28.3853ZM38.4428 5.94233C38.261 6.09448 38.1647 6.18143 38.0577 6.26837C32.5475 11.1265 27.0266 15.9846 21.5057 20.8319C20.7782 21.4731 20.2111 21.4622 19.4836 20.821C13.9627 15.9629 8.43111 11.0939 2.91023 6.23577C2.81394 6.14882 2.71764 6.07274 2.56785 5.95319C2.56785 6.15969 2.56785 6.29011 2.56785 6.4314C2.56785 13.4632 2.56785 20.5058 2.56785 27.5376C2.56785 28.6353 3.03862 29.1135 4.12996 29.1135C15.0433 29.1135 25.9674 29.1135 36.8807 29.1135C37.9721 29.1135 38.4428 28.6461 38.4428 27.5267C38.4428 20.4949 38.4428 13.4523 38.4428 6.42053C38.4428 6.29011 38.4428 6.15969 38.4428 5.94233ZM20.5 18.2778C26.2242 13.2349 31.9162 8.22466 37.6939 3.13831C26.1814 3.13831 14.8079 3.13831 3.30611 3.13831C9.09447 8.23553 14.7758 13.2349 20.5 18.2778Z" fill="#CECED3"/>
</svg>
