<svg xmlns:xlink="http://www.w3.org/1999/xlink" width="16" height="16" viewBox="0 0 16 16" fill="none" xmlns="http://www.w3.org/2000/svg"><path fill-rule="evenodd" clip-rule="evenodd" d="M8 7.33333C9.65685 7.33333 11 5.99019 11 4.33333C11 2.67648 9.65685 1.33333 8 1.33333C6.34315 1.33333 5 2.67648 5 4.33333C5 5.99019 6.34315 7.33333 8 7.33333ZM9.66667 4.33333C9.66667 5.25381 8.92048 6 8 6C7.07953 6 6.33333 5.25381 6.33333 4.33333C6.33333 3.41286 7.07953 2.66667 8 2.66667C8.92048 2.66667 9.66667 3.41286 9.66667 4.33333Z" fill="#707A8A"></path><path fill-rule="evenodd" clip-rule="evenodd" d="M2 11.3333C2 9.86057 3.19391 8.66667 4.66667 8.66667H11.3333C12.8061 8.66667 14 9.86057 14 11.3333V14H2V11.3333ZM12.6667 11.3333V12.6667H3.33333V11.3333C3.33333 10.597 3.93029 10 4.66667 10H11.3333C12.0697 10 12.6667 10.597 12.6667 11.3333Z" fill="#707A8A"></path></svg>