<svg xmlns:xlink="http://www.w3.org/1999/xlink" width="16" height="16" viewBox="0 0 16 16" fill="none" xmlns="http://www.w3.org/2000/svg"><path d="M8.66668 7.33333L12 7.33333V6L8.66668 6V7.33333Z" fill="#707A8A"></path><path d="M8.66668 10L12 10V8.66667L8.66668 8.66667V10Z" fill="#707A8A"></path><path d="M7.33334 8.66667V10L4.00001 10V8.66667L7.33334 8.66667Z" fill="#707A8A"></path><path d="M5.66668 7.66667C6.21896 7.66667 6.66668 7.21895 6.66668 6.66667C6.66668 6.11438 6.21896 5.66667 5.66668 5.66667C5.11439 5.66667 4.66668 6.11438 4.66668 6.66667C4.66668 7.21895 5.11439 7.66667 5.66668 7.66667Z" fill="#707A8A"></path><path fill-rule="evenodd" clip-rule="evenodd" d="M14.6667 2.66667H1.33334V13.3333H14.6667V2.66667ZM13.3333 4V12H2.66668V4H13.3333Z" fill="#707A8A"></path></svg>