<svg xmlns:xlink="http://www.w3.org/1999/xlink" xmlns="http://www.w3.org/2000/svg" viewBox="0 0 24 24" fill="none" class="css-1skkmhs" width="28"  height="28" ><path d="M5 2.05v4.5H3v2h2v2.5H3v2h2v2.5H3v2h2v4.5h17v-20H5zm2 18v-16h13v16H7z" fill="#707A8A"></path><path d="M16.7 9.65c0 .8-.3 1.3-.8 1.9l-1.1 1.5c-.2.2-.3.5-.3.8v.3h-2v-.5c0-.7.2-1.1.6-1.6l1.1-1.5c.2-.3.4-.7.4-1 0-.7-.5-1.3-1.2-1.3-.8 0-1.2.6-1.2 1.3h-2c0-1.9 1.4-3.1 3.2-3.1 1.8.1 3.3 1.2 3.3 3.2zm-2.1 7.9h-2.1v-2h2.1v2z" fill="#707A8A"></path></svg>