<svg width="119" height="93" viewBox="0 0 119 93" fill="none" xmlns="http://www.w3.org/2000/svg">
<path d="M96.5952 19.7778V21.2778H98.0952H101.5V67.7222H98.0952H96.5952V69.2222V84.0556C96.5952 84.973 96.2336 85.8504 95.5937 86.4954C94.9543 87.1401 94.0896 87.5 93.1905 87.5H4.90476C4.00567 87.5 3.14096 87.1401 2.5015 86.4954L1.43657 87.5518L2.5015 86.4954C1.86163 85.8504 1.5 84.973 1.5 84.0556V4.94444C1.5 4.02704 1.86163 3.14962 2.5015 2.50457C3.14096 1.85993 4.00568 1.5 4.90476 1.5H93.1905C94.0896 1.5 94.9543 1.85994 95.5937 2.50457C96.2336 3.14962 96.5952 4.02704 96.5952 4.94444V19.7778ZM89.7857 69.2222V67.7222H88.2857H58.8571C52.7548 67.7222 46.8999 65.2786 42.5811 60.9249C38.262 56.5708 35.8333 50.6628 35.8333 44.5C35.8333 38.3372 38.262 32.4292 42.5811 28.0751C46.8999 23.7214 52.7548 21.2778 58.8571 21.2778H88.2857H89.7857V19.7778V9.88889V8.38889H88.2857H9.80952H8.30952V9.88889V79.1111V80.6111H9.80952H88.2857H89.7857V79.1111V69.2222ZM93.1905 60.8333H94.6905V59.3333V29.6667V28.1667H93.1905H58.8571C54.5529 28.1667 50.4275 29.8905 47.3876 32.9549C44.3482 36.0189 42.6429 40.172 42.6429 44.5C42.6429 48.828 44.3482 52.9811 47.3876 56.0451C50.4275 59.1096 54.5529 60.8333 58.8571 60.8333H93.1905ZM60.3571 41.0556H72.0714V47.9444H60.3571V41.0556Z" fill="#A3A3A9" stroke="#080821" stroke-width="3"/>
<path d="M110.922 84.8138C100.641 95.0954 83.9928 95.0954 73.7112 84.8138C63.4296 74.5322 63.4296 57.8844 73.7112 47.6028C83.9928 37.3212 100.641 37.3212 110.922 47.6028C121.204 57.8707 121.204 74.5185 110.936 84.8001L110.922 84.8138Z" fill="#F0BA03"/>
<path d="M90.248 77.7623H94.3415V81.8558H90.248V77.7623Z" fill="#080821"/>
<path d="M90.248 50.5454H94.3415V73.6688H90.248V50.5454Z" fill="#080821"/>
</svg>
