<svg xmlns:xlink="http://www.w3.org/1999/xlink" width="16" height="16" viewBox="0 0 16 16" fill="none" xmlns="http://www.w3.org/2000/svg"><path d="M10.2 10.7497L7.80005 8.28307V4.81641H9.13338V7.74974L11.2 9.74974L10.2 10.7497Z" fill="#707A8A"></path><path d="M12.7333 12.2833C11.6 13.4167 10.1333 14.0167 8.6 14.0167V12.6833C9.8 12.6833 10.9333 12.15 11.8 11.35C13.6 9.55 13.6 6.55 11.8 4.75C10 2.95 7 2.95 5.2 4.75C3.4 6.55 3.4 9.35 5.06667 11.2167L5.73333 11.8833C5.66667 11.4833 5.6 11.0833 5.6 10.6167V9.08333H6.93333V14.0167H2V12.6833H3.53333C3.93333 12.6833 4.33333 12.75 4.73333 12.8167L4.06667 12.15C1.86667 9.75 1.93333 6.08333 4.2 3.75C6.53333 1.41667 10.3333 1.41667 12.6667 3.75C15 6.08333 15.0667 9.95 12.7333 12.2833Z" fill="#707A8A"></path></svg>