<svg width="86" height="95" viewBox="0 0 86 95" fill="none" xmlns="http://www.w3.org/2000/svg">
<path fill-rule="evenodd" clip-rule="evenodd" d="M0 67.5484L40.5 94.5V0H0V67.5484Z" fill="url(#paint0_linear_137_938)"/>
<path fill-rule="evenodd" clip-rule="evenodd" d="M40.5 0V94.5L81 67.5V0H40.5Z" fill="url(#paint1_linear_137_938)"/>
<path d="M69.748 63.7504L40.498 83.25L11.248 63.7504V11.25H69.748V63.7504Z" fill="#76808F"/>
<path d="M68.875 56.25C78.1948 56.25 85.75 63.8052 85.75 73.125C85.75 82.4448 78.1948 90 68.875 90C59.5552 90 52 82.4448 52 73.125C52 63.8052 59.5552 56.25 68.875 56.25Z" fill="#26DE81"/>
<path d="M65.8748 77.4712L77.2491 66L79 67.7644L65.8748 81L58 73.0589L59.7497 71.2945L65.8748 77.4712Z" fill="white" stroke="white"/>
<path d="M24.748 42.75L40.498 58.5L56.248 42.75L40.498 27L24.748 42.75Z" fill="#E6E8EA"/>
<defs>
<linearGradient id="paint0_linear_137_938" x1="20.25" y1="0" x2="20.25" y2="94.5" gradientUnits="userSpaceOnUse">
<stop stop-color="#929AA5"/>
<stop offset="1" stop-color="#76808F"/>
</linearGradient>
<linearGradient id="paint1_linear_137_938" x1="60.75" y1="94.5" x2="60.75" y2="0" gradientUnits="userSpaceOnUse">
<stop stop-color="#76808F"/>
<stop offset="1" stop-color="#929AA5"/>
</linearGradient>
</defs>
</svg>
