<svg width="86" height="95" viewBox="0 0 86 95" fill="none" xmlns="http://www.w3.org/2000/svg">
<path fill-rule="evenodd" clip-rule="evenodd" d="M0 67.5484L40.5 94.5V0H0V67.5484Z" fill="url(#paint0_linear_133_358)"/>
<path fill-rule="evenodd" clip-rule="evenodd" d="M40.5 0V94.5L81 67.5V0H40.5Z" fill="url(#paint1_linear_133_358)"/>
<path d="M69.748 63.7504L40.498 83.25L11.248 63.7504V11.25H69.748V63.7504Z" fill="#76808F"/>
<path d="M68.623 56.25C77.9429 56.25 85.498 63.8052 85.498 73.125C85.498 82.4448 77.9429 90 68.623 90C59.3032 90 51.748 82.4448 51.748 73.125C51.748 63.8052 59.3032 56.25 68.623 56.25Z" fill="url(#paint2_linear_133_358)"/>
<path d="M66.2377 73.1287L60.2707 67.1617L62.6579 64.7767L68.6227 70.7403L74.5885 64.7744L76.9747 67.1605L71.0088 73.1275L76.9747 79.0934L74.5897 81.4795L68.6227 75.5148L62.6568 81.4807L60.2695 79.0957L66.2354 73.1287H66.2377Z" fill="white"/>
<path d="M24.748 42.75L40.498 58.5L56.248 42.75L40.498 27L24.748 42.75Z" fill="#E6E8EA"/>
<defs>
<linearGradient id="paint0_linear_133_358" x1="20.25" y1="0" x2="20.25" y2="94.5" gradientUnits="userSpaceOnUse">
<stop stop-color="#929AA5"/>
<stop offset="1" stop-color="#76808F"/>
</linearGradient>
<linearGradient id="paint1_linear_133_358" x1="60.75" y1="94.5" x2="60.75" y2="0" gradientUnits="userSpaceOnUse">
<stop stop-color="#76808F"/>
<stop offset="1" stop-color="#929AA5"/>
</linearGradient>
<linearGradient id="paint2_linear_133_358" x1="85.498" y1="39.375" x2="85.498" y2="73.125" gradientUnits="userSpaceOnUse">
<stop stop-color="#F84960"/>
<stop offset="1" stop-color="#D9304E"/>
</linearGradient>
</defs>
</svg>
